<?xml version="1.0" encoding="utf-8"?>
<!-- Generator: Adobe Illustrator 21.0.0, SVG Export Plug-In . SVG Version: 6.00 Build 0)  -->
<svg version="1.1" id="Шар_1" xmlns="http://www.w3.org/2000/svg" xmlns:xlink="http://www.w3.org/1999/xlink" x="0px" y="0px"
	 viewBox="0 0 262 278" style="enable-background:new 0 0 262 278;" xml:space="preserve">
<style type="text/css">
	.st0{fill:#B94A48;}
	.st1{fill:#FFFFFF;}
</style>
<polygon class="st0" points="0,-2 0,278 136,202 262,278 262,-2 "/>
<g>
	<path class="st1" d="M58.7,112.9c2.3,0.8,4.1,2.1,5.4,3.9c1.3,1.8,1.9,4,1.9,6.7c0,3.8-1.1,6.7-3.3,8.6c-2.2,2-5.9,3-11.2,3
		c-2.2,0-4.1-0.1-5.6-0.3c-1.5-0.2-3.1-0.5-4.5-0.9V94.5c1.5-0.4,3-0.7,4.5-0.9c1.5-0.2,3.4-0.3,5.6-0.3c4.4,0,7.6,0.9,9.7,2.8
		c2.1,1.9,3.1,4.5,3.1,7.9c0,1.7-0.5,3.4-1.5,5c-1,1.6-2.3,2.8-4.1,3.6V112.9z M50.9,111c1.9,0,3.4-0.6,4.5-1.7
		c1.1-1.1,1.6-2.8,1.6-5c0-2.2-0.5-3.9-1.6-5c-1.1-1.1-2.6-1.7-4.5-1.7h-2.6V111H50.9z M48.2,115.4v15.4h3.2c2.5,0,4.3-0.6,5.5-1.8
		c1.2-1.2,1.8-3.1,1.8-5.7c0-2.8-0.6-4.8-1.8-6c-1.2-1.2-3-1.8-5.5-1.8H48.2z"/>
	<path class="st1" d="M83.9,131c0.8,0,1.5-0.2,2.2-0.5c0.7-0.3,1.2-0.9,1.7-1.7c0.5-0.8,0.9-1.9,1.2-3.2c0.3-1.3,0.4-3,0.4-5.1V93.9
		h7v26.7c0,5.2-1,8.9-3.1,11.2c-2.1,2.2-5.2,3.3-9.4,3.3c-4.2,0-7.3-1.1-9.4-3.3c-2.1-2.2-3.1-5.9-3.1-11.2V93.9h7v26.7
		c0,2,0.1,3.7,0.4,5.1c0.3,1.3,0.7,2.4,1.2,3.2c0.5,0.8,1.1,1.4,1.7,1.7C82.4,130.9,83.1,131,83.9,131z"/>
	<path class="st1" d="M128.9,114.2c0,3.9-0.3,7.2-1,9.9s-1.6,4.8-2.8,6.4c-1.3,1.6-2.8,2.8-4.6,3.5c-1.8,0.7-4,1.1-6.4,1.1
		c-2.2,0-4.1-0.1-5.6-0.3c-1.5-0.2-3.1-0.5-4.5-0.9V94.5c1.5-0.4,3-0.7,4.5-0.9c1.5-0.2,3.4-0.3,5.6-0.3c2.4,0,4.5,0.4,6.4,1.1
		c1.8,0.7,3.4,1.9,4.6,3.5c1.3,1.6,2.2,3.8,2.8,6.4S128.9,110.3,128.9,114.2z M121.9,114.2c0-3.2-0.2-5.9-0.6-8.1
		c-0.4-2.1-0.9-3.8-1.6-5.1c-0.7-1.2-1.5-2.1-2.5-2.6c-1-0.5-2-0.8-3.2-0.8h-3.2v33.1h3.2c1.2,0,2.2-0.3,3.2-0.8
		c1-0.5,1.8-1.4,2.5-2.6c0.7-1.2,1.2-2.9,1.6-5.1C121.7,120.2,121.9,117.5,121.9,114.2z"/>
	<path class="st1" d="M142.5,129.9h14.2v4.6h-21.2V93.9h21.2v4.6h-14.2V111H155v4.6h-12.5V129.9z"/>
	<path class="st1" d="M167.7,93.9l5.5,15.1l5.5-15.1h7.2l-7.5,19.7l8.4,20.9h-7.2l-6.4-16.5l-6.4,16.5h-7.2l8.4-20.9l-7.5-19.7
		H167.7z"/>
	<path class="st1" d="M198.5,134.5h-7v-40c1.5-0.4,3-0.7,4.5-0.9c1.5-0.2,3.4-0.3,5.6-0.3c2.4,0,4.5,0.3,6.2,0.8
		c1.7,0.5,3.1,1.4,4.2,2.6c1.1,1.2,1.9,2.7,2.4,4.5c0.5,1.8,0.8,4.1,0.8,6.6c0,2.7-0.3,5.1-0.8,7c-0.5,1.9-1.3,3.5-2.3,4.7
		c-1,1.2-2.2,2.1-3.7,2.6c-1.5,0.5-3.2,0.8-5.2,0.8c-0.2,0-0.6,0-1-0.1c-0.4,0-0.8-0.1-1.3-0.1c-0.5-0.1-0.9-0.1-1.4-0.2
		s-0.9-0.1-1.2-0.2V134.5z M201.7,118.3c1.1,0,2-0.2,2.9-0.5c0.8-0.3,1.5-0.9,2.1-1.7c0.6-0.8,1-1.9,1.3-3.2s0.4-3,0.4-5.1
		c0-2-0.1-3.6-0.4-4.9c-0.3-1.3-0.7-2.3-1.3-3.1c-0.6-0.8-1.3-1.3-2.1-1.7c-0.8-0.3-1.8-0.5-2.9-0.5h-3.2v20.6H201.7z"/>
</g>
</svg>
